<svg version="1.1" xmlns="http://www.w3.org/2000/svg" xmlns:xlink="http://www.w3.org/1999/xlink" width="580" height="465.48187" viewBox="0,0,580,465.48187"><g transform="translate(66.5,36.30726)"><g data-paper-data="{&quot;isPaintingLayer&quot;:true}" fill-rule="nonzero" stroke="none" stroke-width="0" stroke-linecap="butt" stroke-linejoin="miter" stroke-miterlimit="10" stroke-dasharray="" stroke-dashoffset="0" style="mix-blend-mode: normal"><path d="M-35.5,377.50001v-122h549v122z" data-paper-data="{&quot;index&quot;:null}" fill="#9966ff"/><path d="M-21.5,258.50001v-30h186v30z" data-paper-data="{&quot;index&quot;:null}" fill="#6d66ff"/><path d="M-29.5,228.50002v-30h157v30z" data-paper-data="{&quot;index&quot;:null}" fill="#7f9eff"/><path d="M-66.5,198.50002v-30h157v30z" data-paper-data="{&quot;index&quot;:null}" fill="#80cbff"/><path d="M164.24736,109.21087v-138h19v138z" fill="#9966ff"/><path d="M62.24736,-8.78913l103,-20v138z" fill="#9966ff"/><path d="M243.24736,109.21087v-138l115,20z" data-paper-data="{&quot;index&quot;:null}" fill="#9966ff"/><path d="M235.24736,273.21086h213z" fill="#9966ff"/><path d="M426.24736,319.21086v-73h79v73z" fill="#9966ff"/><path d="M187.85604,285.36919l167.48604,-137.03461l151.9874,143.80542l-167.48604,137.03461z" fill="#9966ff"/><path d="M-8,23.62178v-41h175v41.00001z" fill="#9966ff"/><path d="M472,50.69274v-87h31v87z" fill="#9966ff"/><path d="M225.24736,109.21087v-138h19v138z" fill="#9966ff"/><path d="M164,110.06088v-45h77v45z" fill="#9966ff"/></g></g></svg>