<svg version="1.1" xmlns="http://www.w3.org/2000/svg" xmlns:xlink="http://www.w3.org/1999/xlink" width="535.49472" height="438.87825" viewBox="0,0,535.49472,438.87825"><g transform="translate(35.5,61.37824)"><g data-paper-data="{&quot;isPaintingLayer&quot;:true}" fill-rule="nonzero" stroke="none" stroke-width="0" stroke-linecap="butt" stroke-linejoin="miter" stroke-miterlimit="10" stroke-dasharray="" stroke-dashoffset="0" style="mix-blend-mode: normal"><path d="M370.58953,323.35694l-29.92406,7.42735l-15.26557,-224.1412l29.92406,-7.42735z" data-paper-data="{&quot;index&quot;:null}" fill="#80cbff"/><path d="M-13.00528,377.50001v-122c0,0 25.96672,0 44.04159,0c26.65917,0 112.95842,0 112.95842,0v122z" data-paper-data="{&quot;index&quot;:null}" fill="#9966ff"/><path d="M199.76713,-39.82806l29.83021,-3.18749l21.62497,203.8436l-29.83021,3.18749z" data-paper-data="{&quot;index&quot;:null}" fill="#7f9eff"/><path d="M-35.5,98.76713l0.0385,-30.15963l187.95094,0.78866l-0.0385,30.15963z" data-paper-data="{&quot;index&quot;:null}" fill="#6d66ff"/><path d="M140.99472,366.1097v-120.56695l359,120.56695z" data-paper-data="{&quot;index&quot;:null}" fill="#9966ff"/><path d="M123.58276,69.23051l29.99816,-0.39019l1.82575,193.93043l-29.99816,0.39019z" data-paper-data="{&quot;index&quot;:null}" fill="#6d66ff"/><path d="M398.24736,266.21085v-120h59v120z" fill="#9966ff"/><path d="M-18,10.62176v-72h517v72z" fill="#9966ff"/></g></g></svg>