<svg version="1.1" xmlns="http://www.w3.org/2000/svg" xmlns:xlink="http://www.w3.org/1999/xlink" width="642.49472" height="532.52918" viewBox="0,0,642.49472,532.52918"><g transform="translate(35.5,47.02918)"><g data-paper-data="{&quot;isPaintingLayer&quot;:true}" fill-rule="nonzero" stroke="none" stroke-width="0" stroke-linecap="butt" stroke-linejoin="miter" stroke-miterlimit="10" stroke-dasharray="" stroke-dashoffset="0" style="mix-blend-mode: normal"><path d="M501,320.84906v57h-290v-57z" data-paper-data="{&quot;index&quot;:null}" fill="#9966ff"/><path d="M134,316.84906v57h-168v-57z" data-paper-data="{&quot;index&quot;:null}" fill="#9966ff"/><path d="M150.16528,409.42882l-29.99994,0.07118l-0.33061,-204.98718l29.99994,-0.07118z" data-paper-data="{&quot;index&quot;:null}" fill="#7f9eff"/><path d="M240.16528,485.38925l-29.99994,0.11075l-0.33061,-318.94761l29.99994,-0.11075z" data-paper-data="{&quot;index&quot;:null}" fill="#7f9eff"/><path d="M513.5,-47.02918v122h-549v-122z" data-paper-data="{&quot;index&quot;:null}" fill="#9966ff"/><path d="M342.16528,372.42882l-29.99994,0.07118l-0.33061,-204.98718l29.99994,-0.07118z" data-paper-data="{&quot;index&quot;:null}" fill="#7f9eff"/><path d="M151.5,72.97082v59h-67v-59z" data-paper-data="{&quot;index&quot;:null}" fill="#9966ff"/><path d="M447.91196,261.3608l-29.99816,0.26971l-1.82575,-134.05091l29.99816,-0.26971z" data-paper-data="{&quot;index&quot;:null}" fill="#6d66ff"/><path d="M606.99472,231.7037l-0.0385,30.15963l-187.95094,-0.78866l0.0385,-30.15963z" data-paper-data="{&quot;index&quot;:null}" fill="#6d66ff"/><path d="M23,331.69274v-285h13v285z" fill="#9966ff"/></g></g></svg>