<svg version="1.1" xmlns="http://www.w3.org/2000/svg" xmlns:xlink="http://www.w3.org/1999/xlink" width="642.49472" height="531.52918" viewBox="0,0,642.49472,531.52918"><g transform="translate(35.5,154.02918)"><g data-paper-data="{&quot;isPaintingLayer&quot;:true}" fill-rule="nonzero" stroke="none" stroke-width="0" stroke-linecap="butt" stroke-linejoin="miter" stroke-miterlimit="10" stroke-dasharray="" stroke-dashoffset="0" style="mix-blend-mode: normal"><path d="M208.12682,155.39176l29.99919,0.13666l-1.25283,105.07981l-29.99919,-0.13666z" data-paper-data="{&quot;index&quot;:null}" fill="#80cbff"/><path d="M211,9.62176v-57h290v57z" fill="#9966ff"/><path d="M-13,13.62176v-57h147v57z" fill="#9966ff"/><path d="M149.83467,126.02918l-29.99994,-0.07118l0.33061,-204.98718l29.99994,0.07118z" data-paper-data="{&quot;index&quot;:null}" fill="#7f9eff"/><path d="M239.83467,51.02918l-29.99994,-0.07118l0.33061,-204.98718l29.99994,0.07118z" data-paper-data="{&quot;index&quot;:null}" fill="#7f9eff"/><path d="M-35.5,377.5v-122h549v122z" data-paper-data="{&quot;index&quot;:null}" fill="#9966ff"/><path d="M341.83467,191.02918l-29.99994,-0.0809l0.33061,-232.97746l29.99994,0.0809z" data-paper-data="{&quot;index&quot;:null}" fill="#7f9eff"/><path d="M84.5,257.5v-59h67v59z" data-paper-data="{&quot;index&quot;:null}" fill="#9966ff"/><path d="M446.08621,203.16093l-29.99816,-0.26971l1.82575,-134.05091l29.99816,0.26971z" data-paper-data="{&quot;index&quot;:null}" fill="#6d66ff"/><path d="M419.04378,99.55578l-0.0385,-30.15963l187.95094,-0.78866l0.0385,30.15963z" data-paper-data="{&quot;index&quot;:null}" fill="#6d66ff"/></g></g></svg>