<svg version="1.1" xmlns="http://www.w3.org/2000/svg" xmlns:xlink="http://www.w3.org/1999/xlink" width="553" height="388.87825" viewBox="0,0,553,388.87825"><g transform="translate(34,11.37824)"><g data-paper-data="{&quot;isPaintingLayer&quot;:true}" fill-rule="nonzero" stroke="none" stroke-width="0" stroke-linecap="butt" stroke-linejoin="miter" stroke-miterlimit="10" stroke-dasharray="" stroke-dashoffset="0" style="mix-blend-mode: normal"><path d="M324.49999,377.50001v-122c0,0 86.29925,0 112.95842,0c18.07487,0 44.04159,0 44.04159,0v122z" data-paper-data="{&quot;index&quot;:null}" fill="#9966ff"/><path d="M-17.5,366.1097l344,-110.56695v110.56695z" data-paper-data="{&quot;index&quot;:null}" fill="#9966ff"/><path d="M59.24736,218.21085v-219h51v219z" fill="#9966ff"/><path d="M109.24736,216.74223v-31h75v31z" fill="#80cbff"/><path d="M195.24736,111.74223v-26h196v26z" fill="#7f9eff"/><path d="M391.24736,255.74223v-200h37v200z" fill="#6d66ff"/><path d="M391.24736,87.74223v-33h97v33z" fill="#6d66ff"/><path d="M261.24736,212.74223v-28h30v28z" fill="#80cbff"/><path d="M-34,7.62176v-19h553v19z" fill="#9966ff"/></g></g></svg>